<svg xmlns="http://www.w3.org/2000/svg" style="display:none" aria-hidden="true">
<!-- Icons extracted from Font Awesome Free 6.5.2 (CC BY 4.0, https://fontawesome.com/license/free) and Academicons (SIL OFL 1.1) -->
<symbol id="i-envelope" viewBox="0 0 512 512"><path d="M48 64Q28 65 14 78Q1 92 0 112Q1 136 19 150L237 314Q256 326 275 314L493 150Q511 136 512 112Q511 92 498 78Q484 65 464 64H48ZM0 176V384V176V384Q1 411 19 429Q37 447 64 448H448Q475 447 493 429Q511 411 512 384V176L294 339Q277 352 256 352Q235 352 218 339L0 176Z"/></symbol>
<symbol id="i-location-dot" viewBox="0 0 384 512"><path d="M216 499Q243 466 282 410Q321 355 352 296Q382 237 384 192Q382 110 328 56Q274 2 192 0Q110 2 56 56Q2 110 0 192Q2 237 32 296Q63 355 102 410Q141 466 168 499Q178 511 192 511Q206 511 216 499ZM192 128Q228 129 247 160Q265 192 247 224Q228 255 192 256Q156 255 137 224Q119 192 137 160Q156 129 192 128Z"/></symbol>
<symbol id="i-building-columns" viewBox="0 0 512 512"><path d="M243 3 19 99 243 3 19 99Q-3 110 1 134Q7 158 32 160V168Q34 190 56 192H456Q478 190 480 168V160Q505 158 511 134Q515 110 493 99L269 3Q256 -3 243 3ZM128 224H64H128H64V420Q63 421 62 421L14 453Q-4 467 1 489Q9 511 32 512H480Q503 511 511 489Q516 467 498 453L450 421Q449 421 449 421Q448 421 448 420V224H384V416H344V224H280V416H232V224H168V416H128V224ZM256 64Q270 64 279 73Q288 82 288 96Q288 110 279 119Q270 128 256 128Q242 128 233 119Q224 110 224 96Q224 82 233 73Q242 64 256 64Z"/></symbol>
<symbol id="i-star" viewBox="0 0 576 512"><path d="M317 18Q308 1 288 0Q269 1 259 18L195 150L51 172Q32 175 26 193Q20 212 34 226L138 329L113 475Q111 494 126 506Q142 517 160 508L288 440L417 508Q434 517 450 506Q466 494 463 475L439 329L543 226Q556 212 551 193Q544 175 525 172L381 150L317 18Z"/></symbol>
<symbol id="i-quote-right" viewBox="0 0 448 512"><path d="M448 296Q447 347 413 381Q379 415 328 416H320Q306 416 297 407Q288 398 288 384Q288 370 297 361Q306 352 320 352H328Q352 351 368 336Q383 320 384 296V288H320Q293 287 275 269Q257 251 256 224V160Q257 133 275 115Q293 97 320 96H384Q411 97 429 115Q447 133 448 160V192V224V296ZM192 296Q191 347 157 381Q123 415 72 416H64Q50 416 41 407Q32 398 32 384Q32 370 41 361Q50 352 64 352H72Q96 351 112 336Q127 320 128 296V288H64Q37 287 19 269Q1 251 0 224V160Q1 133 19 115Q37 97 64 96H128Q155 97 173 115Q191 133 192 160V192V224V296Z"/></symbol>
<symbol id="i-file-pdf" viewBox="0 0 512 512"><path d="M0 64Q1 37 19 19Q37 1 64 0H224V128Q224 142 233 151Q242 160 256 160H384V304H176Q149 305 131 323Q113 341 112 368V512H64Q37 511 19 493Q1 475 0 448V64ZM384 128H256H384H256V0L384 128ZM176 352H208H176H208Q232 353 248 368Q263 384 264 408Q263 432 248 448Q232 463 208 464H192V496Q191 511 176 512Q161 511 160 496V448V368Q161 353 176 352ZM208 432Q230 430 232 408Q230 386 208 384H192V432H208ZM304 352H336H304H336Q356 353 370 366Q383 380 384 400V464Q383 484 370 498Q356 511 336 512H304Q289 511 288 496V368Q289 353 304 352ZM336 480Q351 479 352 464V400Q351 385 336 384H320V480H336ZM416 368Q417 353 432 352H480Q495 353 496 368Q495 383 480 384H448V416H480Q495 417 496 432Q495 447 480 448H448V496Q447 511 432 512Q417 511 416 496V432V368Z"/></symbol>
<symbol id="i-link" viewBox="0 0 640 512"><path d="M580 268Q622 223 622 165Q622 108 580 63Q541 26 489 21Q438 17 394 48L392 49Q381 57 379 70Q377 82 385 94Q393 104 405 106Q418 109 429 101L431 100Q456 83 484 85Q513 87 535 108Q558 133 558 165Q558 198 535 222L422 335Q397 358 365 358Q333 358 308 335Q287 313 285 284Q283 256 300 231L301 229Q308 218 306 206Q304 193 293 185Q282 177 270 179Q257 181 249 192L248 194Q217 238 221 290Q225 341 263 380Q308 422 365 422Q423 422 468 380L580 268ZM60 244Q18 289 18 347Q18 404 60 449Q99 486 151 491Q202 495 247 464L248 463Q259 455 261 442Q263 430 256 418Q247 408 235 406Q222 403 211 411L209 412Q184 429 156 427Q127 425 105 404Q82 379 82 347Q82 314 106 290L218 177Q243 154 275 154Q307 154 332 177Q353 199 355 228Q357 256 340 281L339 283Q332 294 334 307Q336 319 347 327Q358 335 370 333Q383 331 391 320L392 318Q423 274 419 222Q415 171 377 132Q332 90 275 90Q217 90 173 132L60 244Z"/></symbol>
<symbol id="i-globe" viewBox="0 0 512 512"><path d="M352 256Q352 289 349 320H163Q160 289 160 256Q160 223 163 192H349Q352 223 352 256ZM381 192H504H381H504Q512 223 512 256Q512 289 504 320H381Q384 289 384 256Q384 223 381 192ZM493 160H377H493H377Q361 62 321 8Q381 25 426 64Q470 104 493 160ZM344 160H168H344H168Q177 105 195 65Q211 30 228 14Q245 -1 256 0Q267 -1 284 14Q301 30 317 65Q335 105 344 160ZM135 160H19H135H19Q42 104 86 64Q131 25 191 8Q151 62 135 160ZM8 192H131H8H131Q128 223 128 256Q128 289 131 320H8Q0 289 0 256Q0 223 8 192ZM195 447Q177 407 168 352H344Q335 407 317 447Q301 482 284 498Q267 513 256 512Q245 513 228 498Q211 482 195 447ZM135 352Q151 450 191 504Q131 487 86 448Q42 408 19 352H135ZM493 352Q470 408 426 448Q381 487 322 504Q361 450 377 352H493Z"/></symbol>
<symbol id="i-video" viewBox="0 0 576 512"><path d="M0 128Q1 101 19 83Q37 65 64 64H320Q347 65 365 83Q383 101 384 128V384Q383 411 365 429Q347 447 320 448H64Q37 447 19 429Q1 411 0 384V128ZM559 100Q575 109 576 128V384Q575 403 559 412Q542 421 526 411L430 347L416 337V320V192V175L430 165L526 101Q542 92 559 100Z"/></symbol>
<symbol id="i-code" viewBox="0 0 640 512"><path d="M393 1Q380 -2 368 4Q357 10 353 23L225 471Q222 484 228 496Q234 507 247 511Q260 514 272 508Q283 502 287 489L415 41Q418 28 412 16Q406 5 393 1ZM473 121Q464 131 464 144Q464 157 473 167L563 256L473 345Q464 355 464 368Q464 381 473 391Q483 400 496 400Q509 400 519 391L631 279Q640 269 640 256Q640 243 631 233L519 121Q509 112 496 112Q483 112 473 121ZM167 121Q157 112 144 112Q131 112 121 121L9 233Q0 243 0 256Q0 269 9 279L121 391Q131 400 144 400Q157 400 167 391Q176 381 176 368Q176 355 167 345L77 256L167 167Q176 157 176 144Q176 131 167 121Z"/></symbol>
<symbol id="i-book" viewBox="0 0 448 512"><path d="M96 0Q55 1 28 28Q1 55 0 96V416Q1 457 28 484Q55 511 96 512H384H416Q430 512 439 503Q448 494 448 480Q448 466 439 457Q430 448 416 448V384Q430 384 439 375Q448 366 448 352V32Q448 18 439 9Q430 0 416 0H384ZM96 384H352H96H352V448H96Q82 448 73 439Q64 430 64 416Q64 402 73 393Q82 384 96 384ZM128 144Q129 129 144 128H336Q351 129 352 144Q351 159 336 160H144Q129 159 128 144ZM144 192H336H144H336Q351 193 352 208Q351 223 336 224H144Q129 223 128 208Q129 193 144 192Z"/></symbol>
<symbol id="i-graduation-cap" viewBox="0 0 640 512"><path d="M320 32Q308 32 296 36L16 137Q1 144 0 160Q1 176 16 183L74 204Q49 243 48 292V320Q45 364 26 401Q16 420 3 438Q-2 445 1 453Q4 461 12 464L76 480Q83 481 89 478Q94 474 96 467Q106 401 94 359Q89 337 80 317V292Q81 246 108 210Q127 187 157 175L314 113Q328 109 335 122Q339 136 326 143L169 204Q150 212 137 226L296 284Q308 288 320 288Q332 288 344 284L624 183Q639 176 640 160Q639 144 624 137L344 36Q332 32 320 32ZM128 408Q130 436 184 457Q238 479 320 480Q402 479 456 457Q510 436 512 408L497 263L355 314Q338 320 320 320Q302 320 286 314L143 263L128 408Z"/></symbol>
<symbol id="i-briefcase" viewBox="0 0 512 512"><path d="M184 48H328H184H328Q335 49 336 56V96H176V56Q177 49 184 48ZM128 56V96V56V96H64Q37 97 19 115Q1 133 0 160V256H192H512V160Q511 133 493 115Q475 97 448 96H384V56Q383 32 368 16Q352 1 328 0H184Q160 1 144 16Q129 32 128 56ZM512 288H320H512H320V320Q320 334 311 343Q302 352 288 352H224Q210 352 201 343Q192 334 192 320V288H0V416Q1 443 19 461Q37 479 64 480H448Q475 479 493 461Q511 443 512 416V288Z"/></symbol>
<symbol id="i-diagram-project" viewBox="0 0 576 512"><path d="M0 80Q1 60 14 46Q28 33 48 32H144Q164 33 178 46Q191 60 192 80V96H384V80Q385 60 398 46Q412 33 432 32H528Q548 33 562 46Q575 60 576 80V176Q575 196 562 210Q548 223 528 224H432Q412 223 398 210Q385 196 384 176V160H192V176Q192 179 192 181L272 288H368Q388 289 402 302Q415 316 416 336V432Q415 452 402 466Q388 479 368 480H272Q252 479 238 466Q225 452 224 432V336Q224 333 224 331L144 224H48Q28 223 14 210Q1 196 0 176V80Z"/></symbol>
<symbol id="i-users" viewBox="0 0 640 512"><path d="M144 0Q189 1 213 40Q235 80 213 120Q189 159 144 160Q99 159 75 120Q53 80 75 40Q99 1 144 0ZM512 0Q557 1 581 40Q603 80 581 120Q557 159 512 160Q467 159 443 120Q421 80 443 40Q467 1 512 0ZM0 299Q1 253 31 223Q61 193 107 192H149Q173 192 194 202Q192 213 192 224Q194 283 235 320Q235 320 235 320Q235 320 235 320H21Q2 318 0 299ZM405 320Q405 320 405 320Q405 320 405 320Q446 283 448 224Q448 213 446 202Q467 192 491 192H533Q579 193 609 223Q639 253 640 299Q638 318 619 320H405ZM224 224Q224 198 237 176Q250 154 272 141Q295 128 320 128Q345 128 368 141Q390 154 403 176Q416 198 416 224Q416 250 403 272Q390 294 368 307Q345 320 320 320Q295 320 272 307Q250 294 237 272Q224 250 224 224ZM128 485Q129 429 167 391Q205 353 261 352H379Q435 353 473 391Q511 429 512 485Q510 510 485 512H155Q130 510 128 485Z"/></symbol>
<symbol id="i-chalkboard-user" viewBox="0 0 640 512"><path d="M160 64Q161 37 179 19Q197 1 224 0H576Q603 1 621 19Q639 37 640 64V352Q639 379 621 397Q603 415 576 416H337Q319 377 284 352H384V320Q384 306 393 297Q402 288 416 288H480Q494 288 503 297Q512 306 512 320V352H576V64H224V113Q195 96 160 96V64ZM160 128Q186 128 208 141Q230 154 243 176Q256 199 256 224Q256 249 243 272Q230 294 208 307Q186 320 160 320Q134 320 112 307Q90 294 77 272Q64 249 64 224Q64 199 77 176Q90 154 112 141Q134 128 160 128ZM133 352H187H133H187Q243 353 281 391Q319 429 320 485Q318 510 293 512H27Q2 510 0 485Q1 429 39 391Q77 353 133 352Z"/></symbol>
<symbol id="i-moon" viewBox="0 0 384 512"><path d="M224 32Q161 33 111 63Q60 92 30 143Q1 193 0 256Q1 319 31 369Q60 420 111 449Q161 479 224 480Q317 478 379 417Q387 408 382 398Q377 388 365 389Q351 392 335 392Q261 390 211 340Q162 291 160 216Q160 166 184 126Q209 86 249 63Q259 57 257 45Q254 35 242 33Q233 32 223 32Z"/></symbol>
<symbol id="i-sun" viewBox="0 0 512 512"><path d="M362 1Q369 5 371 13L391 121L499 141Q507 143 511 150Q514 158 509 166L447 256L509 346Q514 354 511 362Q507 369 499 371L391 391L371 499Q369 507 362 511Q354 514 346 509L256 447L166 509Q158 514 151 511Q143 507 141 499L121 391L13 371Q5 369 1 362Q-2 354 3 346L65 256L3 166Q-2 158 1 151Q5 143 13 141L121 121L141 13Q143 5 151 1Q158 -2 166 3L256 65L346 3Q354 -2 362 1ZM160 256Q160 230 173 208Q186 186 208 173Q231 160 256 160Q281 160 304 173Q326 186 339 208Q352 230 352 256Q352 282 339 304Q326 326 304 339Q281 352 256 352Q231 352 208 339Q186 326 173 304Q160 282 160 256ZM384 256Q384 221 367 192Q350 163 320 145Q290 128 256 128Q222 128 192 145Q162 163 145 192Q128 221 128 256Q128 291 145 320Q162 349 192 367Q222 384 256 384Q290 384 320 367Q350 349 367 320Q384 291 384 256Z"/></symbol>
<symbol id="i-magnifying-glass" viewBox="0 0 512 512"><path d="M416 208Q415 278 376 331L503 457Q512 467 512 480Q512 493 503 503Q493 512 480 512Q467 512 457 503L331 376Q278 415 208 416Q120 414 61 355Q2 296 0 208Q2 120 61 61Q120 2 208 0Q296 2 355 61Q414 120 416 208ZM208 352Q247 352 280 333Q313 314 333 280Q352 246 352 208Q352 170 333 136Q313 102 280 83Q247 64 208 64Q169 64 136 83Q103 102 83 136Q64 170 64 208Q64 246 83 280Q103 314 136 333Q169 352 208 352Z"/></symbol>
<symbol id="i-arrow-right" viewBox="0 0 448 512"><path d="M439 279Q448 269 448 256Q448 243 439 233L279 73Q269 64 256 64Q243 64 233 73Q224 83 224 96Q224 109 233 119L339 224H32Q18 224 9 233Q0 242 0 256Q0 270 9 279Q18 288 32 288H339L233 393Q224 403 224 416Q224 429 233 439Q243 448 256 448Q269 448 279 439L439 279Z"/></symbol>
<symbol id="i-newspaper" viewBox="0 0 512 512"><path d="M96 96Q97 69 115 51Q133 33 160 32H448Q475 33 493 51Q511 69 512 96V416Q511 443 493 461Q475 479 448 480H80Q46 479 23 457Q1 434 0 400V128Q0 114 9 105Q18 96 32 96Q46 96 55 105Q64 114 64 128V400Q65 415 80 416Q95 415 96 400V96ZM160 120V200V120V200Q162 222 184 224H296Q318 222 320 200V120Q318 98 296 96H184Q162 98 160 120ZM368 112Q369 127 384 128H432Q447 127 448 112Q447 97 432 96H384Q369 97 368 112ZM368 208Q369 223 384 224H432Q447 223 448 208Q447 193 432 192H384Q369 193 368 208ZM160 304Q161 319 176 320H432Q447 319 448 304Q447 289 432 288H176Q161 289 160 304ZM160 400Q161 415 176 416H432Q447 415 448 400Q447 385 432 384H176Q161 385 160 400Z"/></symbol>
<symbol id="i-user" viewBox="0 0 448 512"><path d="M224 256Q259 256 288 239Q317 222 335 192Q352 162 352 128Q352 94 335 64Q317 34 288 17Q259 0 224 0Q189 0 160 17Q131 34 113 64Q96 94 96 128Q96 162 113 192Q131 222 160 239Q189 256 224 256ZM178 304Q103 306 52 356Q2 407 0 482Q0 495 9 503Q17 512 30 512H418Q431 512 439 503Q448 495 448 482Q446 407 396 356Q345 306 270 304H178Z"/></symbol>
<symbol id="i-copy" viewBox="0 0 448 512"><path d="M208 0H332H208H332Q352 0 366 14L434 82Q448 96 448 116V336Q447 356 434 370Q420 383 400 384H208Q188 383 174 370Q161 356 160 336V48Q161 28 174 14Q188 1 208 0ZM48 128H128H48H128V192H64V448H256V416H320V464Q319 484 306 498Q292 511 272 512H48Q28 511 14 498Q1 484 0 464V176Q1 156 14 142Q28 129 48 128Z"/></symbol>
<symbol id="i-check" viewBox="0 0 448 512"><path d="M439 105Q448 115 448 128Q448 141 439 151L183 407Q173 416 160 416Q147 416 137 407L9 279Q0 269 0 256Q0 243 9 233Q19 224 32 224Q45 224 55 233L160 339L393 105Q403 96 416 96Q429 96 439 105Z"/></symbol>
<symbol id="i-calendar" viewBox="0 0 448 512"><path d="M96 32V64V32V64H48Q28 65 14 78Q1 92 0 112V160H448V112Q447 92 434 78Q420 65 400 64H352V32Q352 18 343 9Q334 0 320 0Q306 0 297 9Q288 18 288 32V64H160V32Q160 18 151 9Q142 0 128 0Q114 0 105 9Q96 18 96 32ZM448 192H0H448H0V464Q1 484 14 498Q28 511 48 512H400Q420 511 434 498Q447 484 448 464V192Z"/></symbol>
<symbol id="i-coins" viewBox="0 0 512 512"><path d="M512 80Q511 107 474 128Q428 153 351 159Q346 156 340 154Q279 129 192 128Q180 128 168 129L166 128Q129 107 128 80Q130 46 184 23Q238 1 320 0Q402 1 456 23Q510 46 512 80ZM161 161Q176 160 192 160Q239 160 278 169Q318 177 345 191Q383 212 384 240Q384 246 382 252Q374 272 347 287Q347 287 347 287Q347 287 347 287Q347 287 347 287Q347 287 347 287Q346 288 346 288Q346 288 346 288Q319 303 279 311Q240 320 192 320Q100 319 44 291Q41 289 38 288Q1 267 0 240Q1 213 36 193Q71 173 128 165Q144 162 161 161ZM416 240Q414 207 392 187Q435 180 468 166Q493 156 512 141V176Q511 206 468 227Q446 238 416 245Q416 245 416 245Q416 243 416 240ZM384 336Q383 363 346 384Q344 385 342 386Q341 386 340 387Q284 415 192 416Q144 416 105 407Q65 399 38 384Q1 363 0 336V301Q19 316 44 326Q105 351 192 352Q279 351 340 326Q352 321 363 315Q372 310 380 304Q381 303 383 302Q383 301 384 301V304V310V336ZM416 336V304V336V304V278Q445 272 468 262Q493 252 512 237V272Q512 288 497 303Q471 328 416 341Q416 339 416 336ZM192 448Q279 447 340 422Q365 412 384 397V432Q382 466 328 489Q274 511 192 512Q110 511 56 489Q2 466 0 432V397Q19 412 44 422Q105 447 192 448Z"/></symbol>
<symbol id="i-award" viewBox="0 0 384 512"><path d="M174 6Q192 -5 210 6L228 17Q237 23 248 23L269 21Q291 21 301 40L311 59Q316 68 325 73L345 83Q363 93 363 115L361 136Q361 147 367 156L379 174Q390 192 379 210L367 228Q361 237 361 248L363 269Q363 291 344 301L325 311Q316 316 311 325L301 345Q291 363 270 363L248 361Q237 361 228 367L210 379Q192 390 174 379L156 367Q147 361 136 361L115 363Q93 363 83 344L73 325Q68 316 59 311L40 301Q21 291 21 270L23 248Q23 237 17 228L6 210Q-5 192 6 174L17 156Q23 147 23 136L21 115Q21 93 40 83L59 73Q68 68 73 59L83 40Q93 21 115 21L136 23Q147 23 156 17L174 6ZM272 192Q271 147 232 123Q192 101 152 123Q113 147 112 192Q113 237 152 261Q192 283 232 261Q271 237 272 192ZM1 442 44 339 1 442 44 339Q45 339 45 340L54 359Q75 395 116 395L138 393Q138 393 138 394L156 405Q164 410 172 413L135 502Q131 511 121 512Q112 513 107 505L74 456L18 464Q9 465 3 458Q-2 450 1 442ZM249 502 212 413 249 502 212 413Q220 410 228 405L246 394Q246 393 246 393L268 395Q309 395 330 359L339 340Q339 339 340 339L383 442Q386 450 381 458Q375 465 366 464L310 456L277 505Q272 512 263 512Q253 511 249 502Z"/></symbol>
<symbol id="i-circle-play" viewBox="0 0 512 512"><path d="M0 256Q1 186 34 128Q68 70 128 34Q189 0 256 0Q323 0 384 34Q444 70 478 128Q511 186 512 256Q511 326 478 384Q444 442 384 478Q323 512 256 512Q189 512 128 478Q68 442 34 384Q1 326 0 256ZM188 147Q176 154 176 168V344Q176 358 188 365Q201 371 213 364L357 276Q368 269 368 256Q368 243 357 235L213 147Q201 141 188 147Z"/></symbol>
<symbol id="i-file-lines" viewBox="0 0 384 512"><path d="M64 0Q37 1 19 19Q1 37 0 64V448Q1 475 19 493Q37 511 64 512H320Q347 511 365 493Q383 475 384 448V160H256Q242 160 233 151Q224 142 224 128V0H64ZM256 0V128V0V128H384L256 0ZM112 256H272H112H272Q287 257 288 272Q287 287 272 288H112Q97 287 96 272Q97 257 112 256ZM112 320H272H112H272Q287 321 288 336Q287 351 272 352H112Q97 351 96 336Q97 321 112 320ZM112 384H272H112H272Q287 385 288 400Q287 415 272 416H112Q97 415 96 400Q97 385 112 384Z"/></symbol>
<symbol id="i-bullhorn" viewBox="0 0 512 512"><path d="M480 32Q479 11 460 2Q441 -5 425 9L382 53Q345 89 299 109Q252 128 201 128H192H64Q37 129 19 147Q1 165 0 192V288Q1 315 19 333Q37 351 64 352V480Q64 494 73 503Q82 512 96 512H160Q174 512 183 503Q192 494 192 480V352H201Q252 352 299 372Q345 391 382 427L425 471Q441 485 460 478Q479 469 480 448V300Q494 293 503 277Q512 261 512 240Q512 219 503 203Q494 187 480 180V32ZM416 109V240V109V240V371Q371 331 316 310Q261 288 201 288H192V192H201Q261 192 316 170Q371 149 416 109Z"/></symbol>
<symbol id="i-bars" viewBox="0 0 448 512"><path d="M0 96Q0 82 9 73Q18 64 32 64H416Q430 64 439 73Q448 82 448 96Q448 110 439 119Q430 128 416 128H32Q18 128 9 119Q0 110 0 96ZM0 256Q0 242 9 233Q18 224 32 224H416Q430 224 439 233Q448 242 448 256Q448 270 439 279Q430 288 416 288H32Q18 288 9 279Q0 270 0 256ZM448 416Q448 430 439 439Q430 448 416 448H32Q18 448 9 439Q0 430 0 416Q0 402 9 393Q18 384 32 384H416Q430 384 439 393Q448 402 448 416Z"/></symbol>
<symbol id="i-arrow-up-right-from-square" viewBox="0 0 512 512"><path d="M320 0Q306 0 297 9Q288 18 288 32Q288 46 297 55Q306 64 320 64H403L201 265Q192 275 192 288Q192 301 201 311Q211 320 224 320Q237 320 247 311L448 109V192Q448 206 457 215Q466 224 480 224Q494 224 503 215Q512 206 512 192V32Q512 18 503 9Q494 0 480 0H320ZM80 32Q46 33 23 55Q1 78 0 112V432Q1 466 23 489Q46 511 80 512H400Q434 511 457 489Q479 466 480 432V320Q480 306 471 297Q462 288 448 288Q434 288 425 297Q416 306 416 320V432Q415 447 400 448H80Q65 447 64 432V112Q65 97 80 96H192Q206 96 215 87Q224 78 224 64Q224 50 215 41Q206 32 192 32H80Z"/></symbol>
<symbol id="i-book-open" viewBox="0 0 576 512"><path d="M250 472Q258 474 265 469Q272 465 272 456V79Q272 72 267 68Q252 55 220 44Q188 33 144 32Q106 32 73 40Q40 48 18 56Q1 64 0 84V454Q0 463 8 468Q15 473 24 471Q49 462 81 455Q114 448 144 448Q170 449 200 456Q229 464 250 472ZM326 472Q347 464 376 456Q406 449 432 448Q462 448 495 455Q527 462 552 471Q561 473 568 468Q576 463 576 454V84Q575 64 558 56Q536 48 503 40Q470 32 432 32Q388 33 356 44Q324 55 309 68Q304 72 304 79V456Q304 465 311 469Q318 474 326 472Z"/></symbol>
<symbol id="i-quote-left" viewBox="0 0 448 512"><path d="M0 216Q1 165 35 131Q69 97 120 96H128Q142 96 151 105Q160 114 160 128Q160 142 151 151Q142 160 128 160H120Q96 161 80 176Q65 192 64 216V224H128Q155 225 173 243Q191 261 192 288V352Q191 379 173 397Q155 415 128 416H64Q37 415 19 397Q1 379 0 352V320V288V216ZM256 216Q257 165 291 131Q325 97 376 96H384Q398 96 407 105Q416 114 416 128Q416 142 407 151Q398 160 384 160H376Q352 161 336 176Q321 192 320 216V224H384Q411 225 429 243Q447 261 448 288V352Q447 379 429 397Q411 415 384 416H320Q293 415 275 397Q257 379 256 352V320V288V216Z"/></symbol>
<symbol id="i-flask" viewBox="0 0 448 512"><path d="M288 0H160H288H128Q114 0 105 9Q96 18 96 32Q96 46 105 55Q114 64 128 64V197Q128 215 119 230L10 406Q0 423 0 443Q1 472 20 492Q40 511 69 512H379Q408 511 428 492Q447 472 448 443Q448 423 438 406L330 230Q320 215 320 197V64Q334 64 343 55Q352 46 352 32Q352 18 343 9Q334 0 320 0H288ZM192 197V64V197V64H256V197Q256 233 275 264L310 320H139L173 264Q192 233 192 197Z"/></symbol>
<symbol id="i-user-graduate" viewBox="0 0 448 512"><path d="M219 1Q224 0 229 1L429 41Q447 45 448 64Q447 83 429 88L352 103V160Q351 214 315 251Q278 287 224 288Q170 287 133 251Q97 214 96 160V103L48 93V158L64 237Q65 244 60 250Q56 256 48 256H16Q9 256 4 250Q-1 244 0 237L16 158V87Q1 81 0 64Q1 45 19 41L219 1ZM112 328Q129 323 141 336L212 412Q224 422 236 412L307 336Q319 323 336 328Q386 344 416 385Q447 426 448 481Q448 494 439 503Q430 512 417 512H31Q18 512 9 503Q0 494 0 481Q1 426 32 385Q62 344 112 328Z"/></symbol>
<symbol id="i-house" viewBox="0 0 576 512"><path d="M576 256Q575 269 566 278Q557 287 544 288H512L513 448Q512 452 512 456V472Q512 489 500 500Q489 512 472 512H456Q454 512 453 512Q451 512 449 512H416H392Q375 512 364 500Q352 489 352 472V448V384Q352 370 343 361Q334 352 320 352H256Q242 352 233 361Q224 370 224 384V448V472Q224 489 212 500Q201 512 184 512H160H128Q127 512 126 512Q125 512 124 512Q122 512 120 512H104Q87 512 76 500Q64 489 64 472V360Q64 359 64 357V288H32Q18 287 9 278Q0 269 0 256Q0 242 10 232L266 8Q277 -1 288 0Q300 0 309 7L565 232Q577 242 576 256Z"/></symbol>
<symbol id="i-xmark" viewBox="0 0 384 512"><path d="M343 151Q352 141 352 128Q352 115 343 105Q333 96 320 96Q307 96 297 105L192 211L87 105Q77 96 64 96Q51 96 41 105Q32 115 32 128Q32 141 41 151L147 256L41 361Q32 371 32 384Q32 397 41 407Q51 416 64 416Q77 416 87 407L192 301L297 407Q307 416 320 416Q333 416 343 407Q352 397 352 384Q352 371 343 361L237 256L343 151Z"/></symbol>
<symbol id="i-trophy" viewBox="0 0 576 512"><path d="M400 0H176H400H176Q156 1 142 14Q129 28 129 48Q129 56 130 64H24Q2 66 0 88Q1 157 22 207Q44 256 79 289Q112 321 149 339Q186 357 217 365Q234 370 245 382Q256 395 256 410Q256 426 245 437Q234 448 218 448H192Q178 448 169 457Q160 466 160 480Q160 494 169 503Q178 512 192 512H384Q398 512 407 503Q416 494 416 480Q416 466 407 457Q398 448 384 448H358Q342 448 331 437Q320 426 320 410Q320 395 331 382Q342 370 359 365Q390 357 427 339Q464 321 498 289Q532 256 554 207Q575 157 576 88Q574 66 552 64H446Q447 56 447 48Q447 28 434 14Q420 1 400 0ZM49 112H133H49H133Q140 179 154 226Q168 273 185 303Q147 287 112 254Q88 231 70 196Q53 161 49 112ZM464 254Q429 287 391 303Q408 273 422 226Q436 179 443 112H527Q523 161 506 196Q489 231 464 254Z"/></symbol>
<symbol id="i-lightbulb" viewBox="0 0 384 512"><path d="M272 384Q289 338 321 299Q321 298 321 298Q329 287 337 276Q367 233 368 176Q366 101 316 52Q267 2 192 0Q117 2 68 52Q18 101 16 176Q17 233 47 276Q55 287 63 297Q63 298 63 298Q95 337 112 384H272ZM192 512Q226 511 249 489Q271 466 272 432V416H112V432Q113 466 135 489Q158 511 192 512ZM112 176Q111 191 96 192Q81 191 80 176Q81 128 113 97Q144 65 192 64Q207 65 208 80Q207 95 192 96Q158 97 135 119Q113 142 112 176Z"/></symbol>
<symbol id="i-people-group" viewBox="0 0 640 512"><path d="M72 88Q73 56 100 40Q128 24 156 40Q183 56 184 88Q183 120 156 136Q128 152 100 136Q73 120 72 88ZM64 246Q49 263 48 288Q49 313 64 330V246ZM208 196Q162 238 160 304Q161 356 192 395V416Q192 430 183 439Q174 448 160 448H96Q82 448 73 439Q64 430 64 416V389Q35 375 18 349Q0 322 0 288Q1 240 33 209Q64 177 112 176H144Q181 177 208 196ZM448 416V395V416V395Q479 356 480 304Q478 238 432 196Q459 177 496 176H528Q576 177 607 209Q639 240 640 288Q640 322 622 349Q605 375 576 389V416Q576 430 567 439Q558 448 544 448H480Q466 448 457 439Q448 430 448 416ZM456 88Q457 56 484 40Q512 24 540 40Q567 56 568 88Q567 120 540 136Q512 152 484 136Q457 120 456 88ZM576 246V330V246V330Q592 313 592 288Q592 263 576 246ZM320 32Q356 33 375 64Q393 96 375 128Q356 159 320 160Q284 159 265 128Q247 96 265 64Q284 33 320 32ZM240 304Q241 329 256 346V262Q241 279 240 304ZM384 262V346V262V346Q400 329 400 304Q400 279 384 262ZM448 304Q448 338 430 365Q413 391 384 405V448Q384 462 375 471Q366 480 352 480H288Q274 480 265 471Q256 462 256 448V405Q227 391 210 365Q192 338 192 304Q193 256 225 225Q256 193 304 192H336Q384 193 415 225Q447 256 448 304Z"/></symbol>
<symbol id="i-user-tie" viewBox="0 0 448 512"><path d="M96 128Q96 163 113 192Q130 221 160 239Q190 256 224 256Q258 256 288 239Q318 221 335 192Q352 163 352 128Q352 93 335 64Q318 35 288 17Q258 0 224 0Q190 0 160 17Q130 35 113 64Q96 93 96 128ZM191 328 209 359 191 328 209 359 176 483 140 336Q135 323 122 325Q68 339 35 381Q1 424 0 481Q0 494 9 503Q18 512 31 512H163Q162 512 163 512Q163 512 163 512H168H286Q285 512 286 512Q286 512 286 512H417Q430 512 439 503Q448 494 448 481Q447 424 413 381Q380 339 326 325Q313 323 308 336L272 483L239 359L258 328Q262 320 258 312Q253 305 244 304H224H204Q195 305 190 312Q186 320 191 328Z"/></symbol>
<symbol id="i-list-check" viewBox="0 0 512 512"><path d="M152 38Q167 54 154 72L82 152Q75 160 65 160Q54 160 47 153L7 113Q-7 96 7 79Q24 65 41 79L63 101L118 40Q134 25 152 38ZM152 198Q167 214 154 232L82 312Q75 320 65 320Q54 320 47 313L7 273Q-7 256 7 239Q24 225 41 239L63 261L118 200Q134 185 152 198ZM224 96Q224 82 233 73Q242 64 256 64H480Q494 64 503 73Q512 82 512 96Q512 110 503 119Q494 128 480 128H256Q242 128 233 119Q224 110 224 96ZM224 256Q224 242 233 233Q242 224 256 224H480Q494 224 503 233Q512 242 512 256Q512 270 503 279Q494 288 480 288H256Q242 288 233 279Q224 270 224 256ZM160 416Q160 402 169 393Q178 384 192 384H480Q494 384 503 393Q512 402 512 416Q512 430 503 439Q494 448 480 448H192Q178 448 169 439Q160 430 160 416ZM48 368Q75 369 90 392Q102 416 90 440Q75 463 48 464Q21 463 6 440Q-6 416 6 392Q21 369 48 368Z"/></symbol>
<symbol id="i-images" viewBox="0 0 576 512"><path d="M160 32Q133 33 115 51Q97 69 96 96V320Q97 347 115 365Q133 383 160 384H512Q539 383 557 365Q575 347 576 320V96Q575 69 557 51Q539 33 512 32H160ZM396 139 492 283 396 139 492 283Q499 295 493 307Q486 320 472 320H328H200Q185 319 178 306Q172 293 181 281L245 201Q253 192 264 192Q275 192 283 201L300 223L356 139Q363 128 376 128Q389 128 396 139ZM192 128Q192 114 201 105Q210 96 224 96Q238 96 247 105Q256 114 256 128Q256 142 247 151Q238 160 224 160Q210 160 201 151Q192 142 192 128ZM48 120Q46 98 24 96Q2 98 0 120V344Q1 402 40 440Q78 479 136 480H456Q478 478 480 456Q478 434 456 432H136Q99 431 74 406Q49 381 48 344V120Z"/></symbol>
<symbol id="i-chart-simple" viewBox="0 0 448 512"><path d="M160 80Q161 60 174 46Q188 33 208 32H240Q260 33 274 46Q287 60 288 80V432Q287 452 274 466Q260 479 240 480H208Q188 479 174 466Q161 452 160 432V80ZM0 272Q1 252 14 238Q28 225 48 224H80Q100 225 114 238Q127 252 128 272V432Q127 452 114 466Q100 479 80 480H48Q28 479 14 466Q1 452 0 432V272ZM368 96H400H368H400Q420 97 434 110Q447 124 448 144V432Q447 452 434 466Q420 479 400 480H368Q348 479 334 466Q321 452 320 432V144Q321 124 334 110Q348 97 368 96Z"/></symbol>
<symbol id="i-github" viewBox="0 0 496 512"><path d="M166 397Q165 401 161 401Q155 401 155 397Q156 394 160 394Q165 394 166 397ZM135 393Q134 396 139 398Q144 399 145 396Q146 392 141 391Q136 390 135 393ZM179 391Q174 392 174 396Q175 399 180 399Q185 397 185 394Q184 391 179 391ZM245 8Q138 10 70 78Q2 146 0 252Q1 337 47 401Q93 465 170 491Q188 492 187 479Q187 475 187 464Q187 441 187 418Q185 418 168 420Q150 421 130 416Q110 410 102 388Q102 386 94 372Q86 359 74 351Q72 350 66 343Q59 337 76 336Q77 335 90 340Q103 344 114 362Q132 389 153 389Q175 389 187 383Q191 359 203 349Q159 347 126 327Q93 308 91 238Q91 218 97 205Q102 192 114 180Q112 174 110 156Q108 138 117 112Q135 109 159 123Q184 136 186 139Q186 139 186 139Q216 130 249 130Q281 130 312 139Q312 138 325 130Q337 122 353 116Q369 109 381 112Q390 138 388 156Q386 174 383 180Q395 192 402 205Q409 218 409 238Q408 286 392 309Q375 331 349 339Q323 347 294 349Q310 360 311 395Q311 432 311 461Q311 474 311 479Q310 492 328 491Q404 465 450 401Q495 337 496 252Q495 182 462 127Q428 72 372 40Q315 9 245 8ZM97 353Q95 355 98 358Q101 361 103 359Q105 357 102 354Q100 351 97 353ZM86 345Q86 347 89 349Q92 350 93 348Q94 346 91 344Q88 343 86 345ZM119 380Q117 383 120 387Q124 390 127 388Q128 385 125 381Q121 378 119 380ZM107 366Q105 368 107 372Q110 375 113 374Q115 372 113 368Q110 364 107 366Z"/></symbol>
<symbol id="i-google-scholar" viewBox="0 0 512 512"><path d="M391 299Q391 299 391 299Q405 328 405 363Q404 426 362 468Q319 510 256 512Q193 510 150 468Q108 426 107 363Q107 328 121 299Q124 293 127 288Q133 277 142 267Q185 216 256 213Q307 214 346 243Q359 254 371 267Q379 277 386 288Q388 293 391 299ZM417 280Q394 235 352 209Q309 182 256 181Q203 182 160 209Q118 235 95 280L0 203L256 0L512 203L417 280Z"/></symbol>
<symbol id="i-orcid" viewBox="0 0 512 512"><path d="M295 188H249H295H249V342H296Q346 340 363 313Q381 287 379 265Q380 233 359 211Q338 189 295 188ZM256 8Q187 9 131 42Q75 75 42 131Q9 187 8 256Q9 325 42 381Q75 437 131 470Q187 503 256 504Q325 503 381 470Q437 437 470 381Q503 325 504 256Q503 187 470 131Q437 75 381 42Q325 9 256 8ZM175 369H145H175H145V161H175ZM160 138Q142 136 141 118Q142 100 160 98Q178 100 180 118Q178 136 160 138ZM300 369H219H300H219V161H300Q357 163 384 195Q410 226 410 265Q410 307 381 337Q352 368 300 369Z"/></symbol>
<symbol id="i-zhihu" viewBox="0 0 640 512"><path d="M171 148V366V148V366H194L202 392L244 366H293V148H171ZM268 342H240H268H240L212 360L207 342H195V172H268V342ZM150 248H98H150H98Q100 207 100 174H151Q151 173 151 163Q150 153 142 152H54Q59 132 67 111Q66 111 54 114Q42 117 35 133Q34 136 32 142Q24 167 4 211Q4 211 5 211Q11 211 22 207Q32 203 41 189Q42 186 42 184Q44 181 46 174H75Q75 185 74 212Q74 240 73 248H21Q12 249 9 259Q5 270 5 271Q5 271 5 271H71Q64 346 0 396Q16 400 29 397Q43 393 51 386Q52 387 64 370Q76 353 87 317L141 382Q141 381 143 367Q145 353 139 342Q139 342 139 341Q132 334 121 321Q110 308 103 300L88 312Q94 291 96 271H157Q158 270 156 259Q155 249 150 248ZM562 246Q578 226 592 207Q606 189 607 188Q606 186 596 181Q587 177 579 183Q573 192 559 211Q544 229 543 232L562 246ZM412 187Q404 182 395 185Q387 188 386 189Q386 189 386 189Q387 190 396 203Q406 217 416 231Q425 244 427 247L446 233Q445 231 432 213Q420 195 412 187ZM640 258Q629 258 602 259Q574 259 547 259Q520 259 511 259Q509 259 509 259V158Q516 158 532 157Q593 153 620 152Q621 151 624 138Q627 125 619 119Q616 118 606 121Q597 123 596 123Q593 124 550 128Q508 132 454 136Q399 140 363 141Q366 156 379 161Q392 164 412 163Q419 162 428 162Q466 159 485 159V259H351Q351 261 356 271Q360 280 377 282H485V353Q483 375 460 374Q447 374 434 373Q427 373 419 372Q419 373 419 373Q421 382 438 394Q451 401 464 401Q509 399 509 355V282H631Q638 281 639 270Q640 260 640 258Z"/></symbol>
<symbol id="i-weixin" viewBox="0 0 576 512"><path d="M385 168Q395 168 404 169Q390 109 335 71Q281 33 208 32Q125 34 70 80Q15 126 13 197Q15 278 91 329L72 388L140 354Q145 355 151 356Q179 362 208 363Q217 363 226 362Q220 343 220 322Q222 256 268 213Q314 169 385 168ZM281 115Q304 116 305 139Q304 162 281 163Q269 163 261 157Q252 150 251 139Q252 128 261 121Q269 115 281 115ZM144 163Q133 163 124 157Q115 150 115 139Q115 128 124 121Q133 115 144 115Q168 116 169 139Q168 162 144 163ZM563 319Q561 259 513 220Q465 180 398 178Q326 180 280 220Q234 259 232 319Q234 379 280 419Q326 459 398 461Q425 460 453 452Q454 451 456 451L510 480L495 432Q525 409 544 381Q562 352 563 319ZM344 295Q336 295 331 289Q325 283 325 275Q325 268 331 262Q336 256 344 256Q367 258 368 275Q367 293 344 295ZM451 295Q443 295 438 289Q432 283 432 275Q432 268 438 262Q443 256 451 256Q474 258 475 275Q474 293 451 295Z"/></symbol>
<symbol id="i-x-twitter" viewBox="0 0 512 512"><path d="M389 48H460H389H460L306 224L487 464H345L234 319L107 464H36L201 276L27 48H172L273 181L389 48ZM364 422H404H364H404L151 88H109L364 422Z"/></symbol>
<symbol id="i-linkedin" viewBox="0 0 448 512"><path d="M416 32H32H416H32Q18 32 9 41Q0 51 0 64V448Q0 461 9 471Q18 480 32 480H416Q430 480 439 471Q448 461 448 448V64Q448 51 439 41Q430 32 416 32ZM135 416H69H135H69V202H136V416ZM102 173Q86 173 75 162Q64 151 64 135Q64 118 75 107Q86 96 102 96Q119 96 129 107Q140 118 141 135Q140 151 129 162Q119 173 102 173ZM384 416H318H384H318V312Q319 292 313 274Q308 257 283 255Q258 256 250 272Q243 288 244 310V416H177V202H241V231H242Q248 218 264 208Q280 197 305 197Q354 198 370 226Q386 255 384 299V416Z"/></symbol>
<symbol id="i-youtube" viewBox="0 0 576 512"><path d="M550 124Q538 87 501 75Q477 70 427 67Q377 65 334 64Q291 64 288 64Q285 64 242 64Q199 65 149 67Q99 70 75 75Q38 87 26 124Q21 147 18 177Q16 208 15 232Q15 255 15 256Q15 258 15 281Q16 305 18 335Q21 366 26 389Q38 426 75 437Q99 442 149 445Q199 447 242 448Q285 448 288 448Q288 448 288 448Q291 448 334 448Q377 447 427 445Q477 442 501 437Q538 426 550 389Q555 366 558 335Q560 305 561 281Q561 258 561 256Q561 255 561 232Q560 208 558 177Q555 147 550 124ZM232 338V175V338V175L375 256L232 338Z"/></symbol>
<symbol id="i-bilibili" viewBox="0 0 512 512"><path d="M489 104Q514 131 512 170V372Q511 412 485 437Q460 463 420 464H92Q52 463 27 437Q1 411 0 368V170Q1 131 27 104Q52 79 92 78H121L96 52Q87 44 87 30Q87 17 96 9Q105 0 118 0Q131 0 140 9L213 78H301L376 9Q385 0 398 0Q411 0 420 9Q428 17 429 30Q428 44 420 52L395 78H424Q464 79 489 104ZM450 174Q449 159 439 150Q430 141 416 141H96Q82 141 72 150Q63 159 63 174V368Q63 382 72 392Q82 401 96 402H416Q430 401 440 392Q449 382 450 368V174ZM186 217Q195 226 196 240V273Q195 287 186 296Q177 306 162 306Q148 306 139 296Q129 287 129 273V240Q129 226 139 217Q148 207 162 207Q176 207 186 217ZM377 217Q386 226 387 240V273Q386 287 377 296Q368 306 354 306Q339 306 330 296Q320 287 320 273V240Q321 226 330 217Q340 207 354 207Q368 207 377 217Z"/></symbol>
<symbol id="i-ai-arxiv" viewBox="0 0 448 512"><path d="M62 8Q65 8 67.5 9Q70 10 72 11.5Q74 13 75.5 14.5Q77 16 78 17L79 18L219 152L320 60Q328 52 338 52Q340 52 341 52Q357 56 365 70Q370 82 358 98H357L270 201L295 226Q308 237 308 254.5Q308 272 295 284L272 305L401 460Q411 470 407 484Q403 498 389 503Q385 504 382 504Q371 504 363 496L217 357L122 445Q116 453 106 453Q91 453 85 439Q80 425 92 412L172 314L143 287Q134 277 130.5 265Q127 253 131 241Q135 229 145 219L170 196Q59 62 48 46Q37 31 41 21Q47 8 62 8ZM338 59Q330 60 325 66L224 157L265 196L352 94Q361 81 358 73Q352 63 341 59Q339 59 338 59ZM175 201 150 224Q142 233 138.5 242.5Q135 252 137.5 262.5Q140 273 148 281L368 491Q374 496 382 497Q384 497 387 496Q397 492 400 482Q403 474 395 465Z"/></symbol>
<symbol id="i-ai-dblp" viewBox="0 0 384 512"><path d="M32 40Q32 40 39 43L164 119Q170 123 173.5 127.5Q177 132 178 135L179 137Q182 148 184 156.5Q186 165 187.5 169Q189 173 189.5 175.5Q190 178 190.5 179Q191 180 191 181Q191 182 191 183L203 227L223 303Q224 303 224 304Q226 314 216 318L193 329Q152 348 82 381Q77 383 74 381.5Q71 380 70 378L69 375L24 210Q23 205 25 201.5Q27 198 29 196L32 195L65 179L30 46Q28 40 32 40ZM307 130Q310 130 312 132Q314 134 315 136V137L360 302Q362 312 352 317L319 333Q336 397 354 466Q355 475 345 469L220 393Q214 389 210.5 384.5Q207 380 206 377L205 375V374L196 340L229 324Q230 324 231.5 322.5Q233 321 235 317.5Q237 314 237 310Q237 309 237 309L217 236L202 178L302 131Q305 130 307 130Z"/></symbol>
<symbol id="i-ai-semantic-scholar" viewBox="0 0 512 512"><path d="M379 75Q398 118 412 202Q411 202 408 203Q405 196 405 196Q394 155 390 140Q387 132 377 126Q364 119 353 108Q345 101 337 101Q314 102 269 102Q224 102 204 102Q198 102 195 105Q192 108 170 131Q212 233 203 339Q195 334 191.5 331Q188 328 184.5 322Q181 316 180 308Q176 176 97 80Q97 80 94 75ZM49 108Q81 108 87 108Q92 108 94 112Q160 218 165 309Q165 309 164 312Q133 205 48 111Q48 110 48.5 109Q49 108 49 108ZM8 161Q47 160 57 159Q58 159 61 163Q115 222 135 273Q135 274 143 298Q119 261 87.5 230Q56 199 8 161ZM202 437Q120 305 110 290L111 289Q183 347 192.5 354.5Q202 362 211 354Q325 262 484 195Q486 194 500 189Q502 189 504 189Q403 248 330 305Q257 362 202 437Z"/></symbol>
</svg>